*scenetime* *scenetime* *scenetime* *scenetime* *scenetime*

General
Complete name: Commando.1985.720p.BDRip.XviD-Team21.avi
Genre: Action | Thriller
Imdb Info: http://www.imdb.com/title/tt0088944/
Language: English
Subtitles: Bulgarian/English/Romanian
Format: AVI
Format/Info: Audio Video Interleave
Format profile: OpenDML
File size: 2.60 GiB
Duration: 1h 30mn
Overall bit rate: 4 120 Kbps
Writing application: VirtualDubMod 1.5.10.2 (build 2542/release)
Writing library: VirtualDubMod build 2542/release

Video
ID: 0
Format: MPEG-4 Visual
Format profile: Advanced Simple@L5
Format settings, BVOP: 2
Format settings, QPel: No
Format settings, GMC: No warppoints
Format settings, Matrix: Default (H.263)
Muxing mode: Packed bitstream
Codec ID: XVID
Codec ID/Hint: XviD
Duration: 1h 30mn
Bit rate: 3 469 Kbps
Width: 1 280 pixels
Height: 672 pixels
Display aspect ratio: 1.905
Frame rate: 23.976 fps
Color space: YUV
Chroma subsampling: 4:2:0
Bit depth: 8 bits
Scan type: Progressive
Compression mode: Lossy
Bits/(Pixel*Frame): 0.168
Stream size: 2.19 GiB (84%)
Writing library: XviD 1.2.1 (UTC 2008-12-04)

Audio
ID: 1
Format: AC-3
Format/Info: Audio Coding 3
Mode extension: CM (complete main)
Codec ID: 2000
Duration: 1h 30mn
Bit rate mode: Constant
Bit rate: 640 Kbps
Channel(s): 6 channels
Channel positions: Front: L C R, Side: L R, LFE
Sampling rate: 48.0 KHz
Bit depth: 16 bits
Compression mode: Lossy
Stream size: 413 MiB (16%)
Alignment: Split accross interleaves
Interleave, duration: 42 ms (1.00 video frame)
Interleave, preload duration: 500 ms

*scenetime* *scenetime* *scenetime* *scenetime* *scenetime* 
 
http://scenetime.net/shareimage/images/3pip1uphcz4eu6g1wv2.jpg 
http://scenetime.net/shareimage/images/y12s4ge9tp21d9hm7g.jpg 
http://scenetime.net/shareimage/images/456xsaysq6exukzho.jpg 
http://scenetime.net/shareimage/images/4axfxipm036euh727kvp.jpg 
http://scenetime.net/shareimage/images/ph54mh6fiy3rqjh7c2pk.jpg 
http://scenetime.net/shareimage/images/6dbe1z0ywkm6z4t6r50n.jpg

Torrent downloaded from:
 
http://scenetime.net